<?xml version="1.0" standalone="no"?>
<!DOCTYPE svg PUBLIC "-//W3C//DTD SVG 20010904//EN"
 "http://www.w3.org/TR/2001/REC-SVG-20010904/DTD/svg10.dtd">
<svg version="1.0" xmlns="http://www.w3.org/2000/svg"
 width="1630.000000pt" height="1630.000000pt" viewBox="0 0 1630.000000 1630.000000"
 preserveAspectRatio="xMidYMid meet">
<metadata>
Created by potrace 1.14, written by Peter Selinger 2001-2017
</metadata>
<g transform="translate(0.000000,1630.000000) scale(0.100000,-0.100000)"
fill="#000000" stroke="none">
<path d="M8138 15727 c-24 -12 -46 -26 -50 -31 -4 -6 -8 -7 -8 -2 0 5 -8 3
-17 -6 -10 -8 -47 -29 -83 -48 -68 -35 -87 -45 -210 -115 -41 -23 -100 -55
-130 -72 -30 -16 -93 -52 -140 -78 -47 -27 -101 -57 -120 -67 -19 -10 -44 -24
-55 -31 -47 -30 -126 -74 -240 -137 -27 -15 -101 -57 -163 -94 -62 -36 -116
-66 -119 -66 -4 0 -14 -6 -22 -14 -9 -8 -23 -16 -31 -18 -8 -2 -17 -6 -20 -9
-3 -3 -174 -101 -380 -219 -206 -117 -386 -220 -400 -229 -14 -8 -45 -26 -69
-39 -24 -13 -58 -33 -75 -43 -17 -11 -44 -26 -61 -35 -16 -8 -48 -26 -70 -39
-22 -14 -49 -29 -60 -34 -61 -30 -140 -121 -151 -174 -2 -12 -7 -674 -10
-1472 -6 -1543 -7 -1686 -19 -1706 -6 -8 -4 -10 5 -4 9 6 11 4 5 -5 -10 -17
-15 -367 -18 -1367 -1 -447 -5 -813 -9 -813 -4 0 -3 -13 2 -30 5 -19 5 -30 -1
-30 -6 0 -6 -7 0 -19 6 -10 8 -21 5 -23 -2 -3 -5 -78 -5 -167 0 -132 -3 -161
-15 -161 -8 0 -14 5 -14 10 0 6 -5 10 -10 10 -14 0 -224 122 -228 132 -2 5 -8
6 -13 2 -5 -3 -9 0 -9 5 0 6 -4 11 -9 11 -5 0 -83 43 -173 96 -89 53 -183 108
-208 122 -25 14 -76 44 -115 67 -77 46 -177 104 -260 150 -30 17 -60 36 -67
43 -6 6 -15 12 -19 12 -4 0 -54 28 -111 61 -57 34 -123 73 -148 86 -25 14 -61
35 -80 48 -33 20 -128 76 -210 122 -223 126 -350 199 -375 214 -16 10 -37 22
-45 26 -8 3 -65 34 -125 69 -112 63 -185 91 -185 72 0 -6 -7 -8 -15 -4 -8 3
-15 2 -15 -3 0 -5 -17 -16 -37 -25 -34 -14 -115 -57 -213 -113 -35 -20 -58
-32 -240 -133 -182 -100 -203 -112 -252 -141 -27 -16 -53 -29 -58 -29 -6 0
-10 -4 -10 -10 0 -5 -5 -10 -10 -10 -13 0 -167 -87 -191 -107 -9 -7 -18 -11
-21 -8 -3 3 -11 -1 -18 -10 -7 -8 -16 -15 -20 -15 -4 0 -69 -36 -145 -80 -76
-44 -139 -80 -141 -80 -2 0 -33 -18 -69 -40 -36 -22 -68 -40 -71 -40 -3 0 -18
-8 -32 -18 -27 -19 -110 -66 -187 -106 -22 -12 -42 -24 -45 -27 -9 -10 -145
-83 -149 -80 -2 2 -8 -4 -13 -13 -5 -9 -17 -16 -28 -16 -10 0 -20 -3 -22 -8
-2 -6 -169 -104 -303 -178 -49 -27 -124 -70 -225 -128 -60 -35 -111 -61 -114
-58 -3 3 -6 0 -6 -6 0 -7 -7 -12 -16 -12 -22 0 -84 -63 -85 -87 -1 -10 -3 -59
-4 -109 -1 -50 -5 -96 -9 -102 -3 -6 -2 -13 4 -17 6 -4 8 -11 4 -16 -8 -14
-15 -493 -18 -1379 -2 -415 -4 -759 -6 -765 -1 -5 -1 -14 0 -20 7 -32 -2 -419
-12 -461 -13 -63 -8 -88 31 -141 22 -30 39 -42 67 -47 32 -7 260 -128 274
-146 3 -4 10 -9 15 -11 10 -4 168 -93 203 -114 9 -6 51 -30 92 -54 41 -24 86
-51 100 -59 14 -9 27 -17 30 -17 3 0 25 -14 50 -29 24 -16 71 -43 103 -60 32
-17 68 -40 80 -51 12 -11 24 -19 27 -18 8 3 184 -100 188 -109 2 -4 8 -8 13
-8 5 0 64 -32 132 -71 67 -40 171 -101 231 -135 60 -35 113 -64 117 -64 5 0 9
-4 9 -9 0 -5 8 -11 17 -15 10 -3 25 -10 33 -15 8 -6 65 -39 125 -74 61 -35
191 -111 290 -169 99 -58 196 -115 215 -126 126 -71 666 -387 670 -392 3 -3
16 -11 30 -17 14 -7 43 -24 65 -38 22 -14 47 -28 55 -32 8 -4 59 -33 113 -65
55 -32 103 -58 108 -58 5 0 9 -3 9 -7 0 -5 10 -13 23 -19 36 -18 119 -65 175
-101 29 -18 54 -33 56 -33 2 0 158 -91 347 -201 379 -222 394 -231 459 -267
25 -13 52 -30 60 -36 15 -11 26 -18 109 -64 25 -14 62 -34 81 -45 76 -44 117
-67 175 -97 33 -18 67 -39 76 -46 8 -8 19 -14 23 -14 4 0 35 -16 69 -36 34
-20 78 -46 97 -56 19 -11 75 -43 123 -71 49 -29 107 -63 130 -76 23 -13 54
-31 69 -40 135 -80 376 -220 406 -236 20 -11 39 -23 42 -26 3 -3 32 -21 65
-39 73 -41 254 -147 275 -160 8 -6 26 -16 40 -22 14 -7 44 -25 67 -40 23 -15
44 -28 48 -28 3 0 24 -12 48 -27 23 -15 53 -33 66 -41 20 -10 99 -56 216 -125
11 -6 48 -29 82 -49 34 -21 65 -38 68 -38 4 0 26 -13 50 -30 24 -16 46 -30 49
-30 3 0 71 -38 151 -85 81 -47 148 -85 150 -85 1 0 53 -29 114 -65 62 -36 144
-81 182 -101 39 -20 75 -42 82 -48 29 -27 134 -73 156 -70 14 3 94 43 178 89
85 47 156 85 157 85 2 0 54 29 116 65 62 36 114 65 116 65 4 0 479 269 544
309 19 11 42 24 50 28 8 4 48 26 88 50 41 24 77 43 82 43 4 0 13 7 20 15 7 8
16 13 20 10 5 -3 10 -2 12 3 1 4 30 23 63 41 65 37 106 60 158 90 17 10 113
64 212 121 99 56 227 129 285 162 58 34 119 68 135 78 17 9 80 45 140 80 61
35 135 77 165 93 30 17 64 38 75 47 26 23 220 130 234 130 6 0 11 4 11 8 0 4
21 18 48 31 26 12 81 42 122 66 115 67 223 126 243 132 9 3 17 9 17 14 0 5 4
9 9 9 5 0 62 31 127 68 66 38 142 81 169 97 28 16 68 39 90 51 22 13 51 29 65
37 14 7 41 23 60 34 173 100 232 134 275 158 80 44 169 95 185 105 20 13 102
60 235 135 61 34 127 71 148 83 52 31 101 58 145 83 20 12 67 39 104 60 36 22
71 39 77 39 6 0 11 4 11 9 0 5 8 11 18 14 9 4 37 18 62 33 79 47 184 107 215
122 17 9 32 19 35 22 3 4 23 16 45 27 22 11 69 37 105 58 36 21 79 45 95 53
17 8 37 20 45 27 8 7 44 28 80 47 36 19 94 52 130 73 36 21 83 48 105 60 22
13 85 49 140 80 55 32 183 105 285 162 102 58 212 121 244 141 33 19 65 35 73
35 7 0 13 4 13 8 0 4 30 24 68 45 120 67 222 125 252 144 8 5 31 18 50 28 19
11 222 126 450 256 379 216 460 269 460 302 0 7 6 14 14 17 24 10 31 80 31
312 0 142 4 233 10 237 7 5 7 8 0 8 -10 0 -12 247 -2 257 3 2 1 17 -3 33 -4
16 -6 31 -3 34 8 7 6 143 -2 155 -3 6 -3 11 2 11 4 0 9 366 9 813 1 446 3 866
4 933 2 83 -1 128 -10 145 -17 31 -91 99 -108 99 -8 0 -89 46 -180 101 -92 56
-187 113 -212 127 -25 13 -52 30 -60 36 -8 7 -98 61 -200 121 -102 59 -197
116 -212 126 -15 11 -29 19 -32 19 -3 0 -39 20 -79 45 -41 25 -79 45 -85 45
-6 0 -12 4 -14 8 -2 5 -15 15 -30 23 -73 38 -233 133 -236 141 -2 4 -8 8 -13
8 -6 0 -51 24 -102 54 -51 30 -106 62 -124 72 -17 11 -80 47 -138 82 -59 34
-111 62 -116 62 -5 0 -9 5 -9 10 0 6 -4 10 -8 10 -5 0 -98 52 -208 116 -109
65 -215 126 -234 137 -19 10 -39 23 -45 27 -5 4 -30 19 -55 32 -25 13 -81 46
-126 71 -70 41 -88 48 -138 48 -52 1 -66 -4 -181 -70 -69 -39 -128 -71 -132
-71 -3 0 -14 -6 -22 -14 -9 -7 -41 -26 -71 -42 -30 -16 -57 -31 -60 -34 -9
-10 -263 -150 -272 -150 -4 0 -8 -3 -8 -8 0 -4 -30 -23 -67 -42 -38 -19 -75
-39 -83 -46 -8 -6 -37 -24 -65 -39 -27 -14 -66 -36 -85 -47 -166 -97 -496
-282 -499 -279 -2 1 -7 -1 -10 -6 -7 -10 -128 -83 -138 -83 -4 0 -14 -6 -22
-14 -9 -8 -23 -16 -31 -18 -8 -2 -17 -5 -20 -8 -5 -6 -231 -138 -260 -153 -8
-4 -28 -16 -45 -27 -16 -10 -61 -37 -100 -59 -89 -52 -104 -61 -136 -82 -14
-9 -49 -29 -77 -44 -29 -15 -55 -31 -58 -36 -3 -5 -14 -9 -25 -9 -13 0 -18 4
-13 12 4 6 8 684 10 1507 3 1976 5 2231 18 2231 8 0 8 3 0 8 -13 9 -13 343 0
335 5 -4 6 0 1 8 -12 18 -14 89 -3 89 5 0 5 8 0 18 -10 19 -9 158 0 168 4 3 5
11 2 17 -9 25 -11 107 -2 107 5 0 6 5 2 11 -4 7 -6 68 -5 138 2 127 1 150 -2
208 -1 17 2 29 6 26 5 -3 6 5 1 18 -4 13 -6 47 -4 74 1 28 2 56 1 63 -2 22 -2
32 0 402 2 266 -1 375 -10 402 -12 38 -76 94 -156 138 -22 12 -47 28 -56 36
-8 8 -19 14 -23 14 -4 0 -32 16 -62 35 -30 19 -56 35 -59 35 -8 0 -120 73
-126 82 -3 6 -8 8 -10 7 -5 -3 -139 74 -184 105 -16 12 -32 21 -35 21 -3 0
-16 8 -30 16 -26 17 -188 112 -252 147 -20 12 -54 32 -75 45 -21 13 -58 35
-83 49 -120 68 -666 388 -677 397 -7 6 -15 11 -18 11 -3 0 -178 101 -388 223
-210 123 -392 229 -405 236 -39 21 -89 20 -134 -2z"/>
</g>
</svg>
